<?xml version="1.0" encoding="utf-8"?>
<!-- Generator: Adobe Illustrator 26.5.0, SVG Export Plug-In . SVG Version: 6.00 Build 0)  -->
<svg version="1.1" id="Layer_1" xmlns:svgjs="http://svgjs.com/svgjs"
	 xmlns="http://www.w3.org/2000/svg" xmlns:xlink="http://www.w3.org/1999/xlink" x="0px" y="0px" viewBox="0 0 512 512"
	 style="enable-background:new 0 0 512 512;" xml:space="preserve">
<style type="text/css">
	.st0{fill:none;}
</style>
<g>
	<path class="st0" d="M72,440c0-131.4,82.4-224,184-224s184,92.6,184,224c0,0-80,48-184,48C160,488,72,440,72,440z"/>
	<circle class="st0" cx="256" cy="120" r="96"/>
	<path d="M68.2,447c3.7,2,90.9,49,187.8,49c105,0,184.8-47.1,188.1-49.1c2.4-1.4,3.9-4,3.9-6.9c0-64.6-19.8-123.7-55.8-166.4
		c-25.2-29.9-56.7-50.3-91.5-59.7c51.9-24.7,73.9-86.7,49.2-138.6S263.2,1.4,211.3,26.1s-73.9,86.7-49.2,138.6
		c10.3,21.6,27.6,39,49.2,49.2c-34.8,9.4-66.4,29.8-91.5,59.7C83.8,316.3,64,375.4,64,440C64,442.9,65.6,445.6,68.2,447z M168,120
		c0-48.6,39.4-88,88-88s88,39.4,88,88s-39.4,88-88,88C207.4,207.9,168.1,168.6,168,120z M132,283.9c32.5-38.6,76.5-59.9,124-59.9
		s91.5,21.3,124,59.9c32.7,38.8,51.1,92.5,52,151.5c-17.1,9.3-88.3,44.7-176,44.7c-81.1,0-157.5-35.6-176-44.9
		C81,376.2,99.4,322.7,132,283.9L132,283.9z"/>
</g>
</svg>
