<svg width="33" height="33" viewBox="0 0 33 33" fill="none" xmlns="http://www.w3.org/2000/svg">
<path d="M19.3122 26.3043V20.4348C19.3122 20.1753 19.2063 19.9265 19.0178 19.743C18.8293 19.5596 18.5736 19.4565 18.3069 19.4565H14.2858C14.0192 19.4565 13.7635 19.5596 13.5749 19.743C13.3864 19.9265 13.2805 20.1753 13.2805 20.4348V26.3043C13.2805 26.5638 13.1746 26.8126 12.986 26.9961C12.7975 27.1795 12.5418 27.2826 12.2752 27.2826H6.24345C5.97683 27.2826 5.72113 27.1795 5.5326 26.9961C5.34407 26.8126 5.23816 26.5638 5.23816 26.3043V14.9932C5.24041 14.8578 5.27048 14.7242 5.32659 14.6003C5.3827 14.4764 5.46372 14.3647 5.56488 14.2717L15.6178 5.38179C15.8031 5.2168 16.0452 5.12531 16.2964 5.12531C16.5475 5.12531 16.7896 5.2168 16.9749 5.38179L27.0278 14.2717C27.129 14.3647 27.21 14.4764 27.2661 14.6003C27.3222 14.7242 27.3523 14.8578 27.3546 14.9932V26.3043C27.3546 26.5638 27.2486 26.8126 27.0601 26.9961C26.8716 27.1795 26.6159 27.2826 26.3493 27.2826H20.3175C20.0509 27.2826 19.7952 27.1795 19.6067 26.9961C19.4181 26.8126 19.3122 26.5638 19.3122 26.3043Z" stroke="#245922" stroke-linecap="round" stroke-linejoin="round"/>
</svg>
