<svg xmlns="http://www.w3.org/2000/svg" version="1.1" xmlns:xlink="http://www.w3.org/1999/xlink" xmlns:svgjs="http://svgjs.com/svgjs" width="512" height="512" x="0" y="0" viewBox="0 0 48 48" style="enable-background:new 0 0 512 512" xml:space="preserve" class=""><g><g fill="rgb(0,0,0)"><path d="m24 48a24 24 0 1 1 14.11-43.416 1.5 1.5 0 0 1 -1.766 2.426 20.969 20.969 0 1 0 6.14 7.014 1.5 1.5 0 0 1 2.639-1.424 24.007 24.007 0 0 1 -21.123 35.4z" fill="#000000" data-original="#000000" class=""></path><path d="m41.121 10.9a1.5 1.5 0 0 1 -1.143-.527l-.27-.311a1.5 1.5 0 1 1 2.247-1.987l.307.353a1.5 1.5 0 0 1 -1.141 2.472z" fill="#000000" data-original="#000000" class=""></path><path d="m26.192 22.5h-1v-6.879h1a3.444 3.444 0 0 1 3.44 3.44 1.5 1.5 0 1 0 3 0 6.447 6.447 0 0 0 -6.44-6.44h-1v-3.221a1.5 1.5 0 0 0 -3 0v3.221h-1a6.44 6.44 0 1 0 0 12.879h1v6.879h-1a3.444 3.444 0 0 1 -3.44-3.44 1.5 1.5 0 0 0 -3 0 6.447 6.447 0 0 0 6.44 6.44h1v3.221a1.5 1.5 0 0 0 3 0v-3.221h1a6.44 6.44 0 1 0 0-12.879zm-5.007 0a3.44 3.44 0 1 1 0-6.879h1v6.879zm5.007 9.879h-1v-6.879h1a3.44 3.44 0 1 1 0 6.879z" fill="#000000" data-original="#000000" class=""></path></g></g></svg>