<svg xmlns="http://www.w3.org/2000/svg" version="1.1" xmlns:xlink="http://www.w3.org/1999/xlink" xmlns:svgjs="http://svgjs.com/svgjs" width="512" height="512" x="0" y="0" viewBox="0 0 512 512" style="enable-background:new 0 0 512 512" xml:space="preserve" class=""><g><path d="m396.295 57.886c-37.329-37.328-87.153-57.886-140.295-57.886-53.143 0-102.967 20.558-140.296 57.886-69.46 69.46-80.334 152.871-32.319 247.913 39.383 77.956 110.309 148.872 162.098 200.653l2.032 2.033c2.344 2.343 5.414 3.515 8.485 3.515s6.143-1.172 8.485-3.515l2.036-2.036c51.787-51.781 122.713-122.698 162.094-200.653 48.014-95.041 37.14-178.45-32.32-247.91zm10.9 237.089c-36.074 71.408-101.256 138.06-151.195 188.053-49.938-49.992-115.121-116.646-151.194-188.05-43.419-85.947-34.304-157.949 27.869-220.121 34.001-34 78.663-51.001 123.324-51.001 44.662 0 89.324 17 123.325 51.001 62.172 62.171 71.289 134.173 27.871 220.118zm-151.196-173.177c-48.607 0-88.153 39.546-88.153 88.154s39.546 88.154 88.153 88.154c48.608 0 88.154-39.546 88.154-88.154s-39.545-88.154-88.154-88.154zm0 152.308c-35.374 0-64.153-28.779-64.153-64.154s28.779-64.154 64.153-64.154c35.375 0 64.154 28.779 64.154 64.154s-28.779 64.154-64.154 64.154z" fill="#000000" data-original="#000000" class=""></path></g></svg>